<?xml version="1.0" standalone="no"?>
<!DOCTYPE svg PUBLIC "-//W3C//DTD SVG 20010904//EN"
 "http://www.w3.org/TR/2001/REC-SVG-20010904/DTD/svg10.dtd">
<svg version="1.0" xmlns="http://www.w3.org/2000/svg"
 width="820.000000pt" height="820.000000pt" viewBox="0 0 820.000000 820.000000"
 preserveAspectRatio="xMidYMid meet">
<metadata>
Created by potrace 1.14, written by Peter Selinger 2001-2017
</metadata>
<g transform="translate(0.000000,820.000000) scale(0.100000,-0.100000)"
fill="#000000" stroke="none">
<path d="M1590 5511 c-129 -28 -263 -82 -502 -203 -676 -341 -1104 -644 -1074
-762 3 -12 20 -30 38 -41 31 -19 50 -20 268 -19 234 1 451 21 473 43 21 21
-28 23 -225 7 -237 -19 -392 -20 -437 -5 -48 17 -41 46 32 120 160 164 516
394 922 594 348 172 558 242 640 215 19 -6 40 -21 46 -32 18 -33 5 -143 -26
-233 -42 -122 -181 -419 -348 -742 l-150 -293 -91 -77 c-387 -329 -591 -622
-711 -1017 -80 -266 -71 -340 41 -312 55 14 412 581 706 1121 l115 210 59 8
c32 4 91 7 131 5 60 -3 76 -7 98 -28 25 -23 26 -30 22 -85 -3 -33 -17 -112
-32 -175 -45 -185 -36 -297 28 -375 45 -55 116 -85 202 -84 115 0 190 39 246
128 34 53 35 86 2 86 -17 0 -31 -15 -55 -55 -83 -138 -254 -153 -332 -27 -45
73 -45 138 -2 335 42 189 43 215 16 260 -30 49 -76 64 -220 71 l-125 6 135
101 c798 599 1668 1023 2352 1148 299 55 587 57 833 6 103 -21 125 -21 125 4
0 16 -78 36 -244 63 -154 25 -470 22 -656 -6 -638 -97 -1317 -394 -2106 -921
-89 -60 -203 -138 -254 -175 -50 -36 -94 -64 -96 -62 -3 2 62 139 143 303 169
340 244 511 273 621 61 234 -26 325 -260 274z m-506 -1653 c-183 -338 -561
-958 -584 -958 -18 0 47 227 110 383 72 178 167 334 293 480 52 60 238 229
245 222 2 -2 -27 -59 -64 -127z"/>
<path d="M6510 5423 c-52 -9 -251 -115 -398 -213 -262 -174 -455 -338 -657
-560 -88 -98 -503 -565 -530 -598 -1 -1 31 96 70 217 40 120 80 250 90 290 16
66 16 73 1 96 -23 35 -66 33 -109 -5 -19 -16 -87 -98 -152 -182 -65 -84 -125
-160 -133 -168 -16 -17 -14 -12 68 170 164 365 193 596 89 714 -90 102 -271
119 -526 50 -394 -106 -877 -404 -1079 -666 -94 -122 -151 -293 -109 -328 26
-22 47 -1 60 61 6 30 33 97 60 149 104 199 364 415 723 598 244 124 429 182
587 182 177 0 255 -72 255 -235 0 -200 -169 -594 -510 -1190 -205 -357 -205
-358 -184 -379 39 -39 57 -23 174 154 220 331 653 930 673 930 5 0 6 -8 2 -17
-36 -90 -165 -513 -165 -542 0 -42 14 -61 44 -61 39 1 64 24 193 180 183 219
500 566 629 689 219 208 508 421 724 534 162 84 190 84 190 -2 0 -84 -67 -251
-246 -606 -255 -507 -389 -748 -670 -1206 -73 -119 -133 -223 -134 -230 -5
-31 1 -40 22 -37 36 5 401 575 621 970 193 346 396 755 462 933 46 123 54 227
20 265 -36 41 -86 55 -155 43z"/>
<path d="M7259 4679 c-8 -4 -37 -55 -65 -111 l-50 -103 -80 -5 c-92 -6 -117
-16 -89 -36 12 -9 35 -12 75 -7 32 3 60 1 63 -4 3 -5 -33 -103 -79 -217 -99
-241 -111 -296 -72 -341 20 -23 35 -29 82 -33 49 -4 65 0 121 27 61 30 66 31
82 16 28 -29 120 -16 173 23 l43 32 19 -31 c18 -30 21 -31 77 -27 37 3 61 0
69 -8 18 -19 44 -7 113 53 63 56 149 116 156 109 2 -1 -4 -19 -12 -39 -32 -77
-14 -127 45 -127 56 0 230 111 230 146 0 20 -3 19 -94 -31 -81 -44 -116 -55
-116 -35 0 5 7 27 16 49 8 22 14 52 12 68 -3 25 -7 28 -46 31 -33 3 -55 -4
-97 -27 l-54 -30 6 33 c4 25 1 35 -11 39 -20 8 -45 -17 -90 -88 -34 -55 -86
-95 -122 -95 -26 0 -30 15 -15 66 10 36 -2 64 -29 64 -10 0 -53 -29 -95 -65
-70 -60 -105 -78 -105 -57 0 16 56 87 91 116 51 43 75 52 103 36 48 -25 78 17
38 53 -49 44 -160 -4 -269 -117 -76 -78 -155 -126 -210 -126 -72 0 -63 63 54
345 62 150 83 190 99 192 10 1 58 5 107 8 65 5 87 10 87 21 0 11 -19 14 -88
14 -49 0 -91 2 -94 6 -3 3 10 44 28 91 19 48 34 94 34 104 0 20 -22 30 -41 18z"/>
<path d="M2675 4217 c-29 -50 -32 -77 -9 -77 40 0 84 52 84 100 0 15 -6 20
-25 20 -18 0 -31 -11 -50 -43z"/>
<path d="M2342 4132 c-9 -10 -37 -55 -62 -101 -46 -86 -83 -121 -127 -121 -25
0 -29 16 -14 66 10 36 -2 64 -29 64 -10 0 -53 -29 -95 -65 -70 -60 -105 -78
-105 -57 0 16 56 87 91 116 51 43 75 52 103 36 48 -25 78 17 38 53 -60 54
-237 -45 -299 -166 -42 -83 -17 -116 82 -105 28 4 60 17 86 37 l42 31 19 -31
c18 -29 22 -31 73 -27 37 2 56 -1 60 -9 8 -23 34 -14 62 23 109 141 150 180
211 199 20 6 22 3 22 -29 0 -40 17 -47 43 -18 25 28 31 67 12 86 -20 20 -35
20 -103 3 -47 -13 -52 -13 -57 4 -8 26 -33 31 -53 11z"/>
<path d="M6737 4135 c-9 -8 -36 -53 -61 -99 -49 -89 -87 -126 -130 -126 -29 0
-31 8 -15 64 9 31 8 41 -4 53 -21 22 -46 10 -127 -57 -81 -69 -110 -79 -85
-29 23 44 79 103 119 124 30 16 38 17 60 6 47 -25 78 16 40 53 -58 59 -262
-65 -309 -187 -17 -46 -17 -48 0 -67 14 -15 31 -20 70 -20 44 0 61 6 103 35
l51 35 13 -28 c12 -25 18 -27 68 -27 30 0 61 -6 68 -12 26 -25 29 -22 119 97
43 57 136 130 165 130 4 0 8 -16 8 -35 0 -60 56 -37 66 27 6 33 4 39 -19 49
-25 11 -75 5 -131 -17 -11 -4 -16 -1 -16 10 0 25 -36 39 -53 21z"/>
<path d="M3349 4113 c-30 -15 -81 -54 -114 -88 -58 -60 -127 -105 -160 -105
-20 0 -19 9 6 66 40 95 -16 122 -131 64 -62 -31 -67 -31 -50 0 7 14 6 23 -6
34 -21 22 -49 6 -74 -43 -10 -21 -38 -53 -60 -71 -43 -34 -135 -74 -150 -65
-11 7 1 48 29 102 25 50 27 71 6 80 -23 8 -52 -23 -85 -93 -54 -111 -35 -160
56 -151 29 3 64 12 79 20 25 13 30 12 47 -5 23 -23 43 -14 103 42 43 41 156
122 162 117 2 -2 -4 -23 -12 -47 -38 -107 8 -148 114 -100 l44 20 22 -20 c36
-34 111 -28 173 15 l51 35 13 -28 c11 -23 20 -27 60 -30 59 -4 104 16 158 70
41 42 52 78 24 78 -9 0 -41 -22 -71 -50 -39 -36 -63 -50 -84 -50 -32 0 -34 7
-18 64 9 31 8 41 -4 53 -21 22 -46 10 -127 -57 -81 -69 -110 -79 -85 -29 23
44 79 103 119 124 30 16 38 17 60 6 30 -17 56 -8 56 18 0 55 -66 66 -151 24z"/>
<path d="M4660 3050 c-16 -32 -18 -40 -6 -40 8 0 23 12 34 28 34 48 34 52 13
52 -14 0 -27 -13 -41 -40z"/>
<path d="M3092 2975 c-40 -18 -62 -65 -62 -135 0 -78 20 -115 80 -145 54 -27
62 -50 17 -50 -15 0 -28 -4 -29 -10 -4 -13 36 -19 69 -10 21 5 24 11 21 36 -4
25 0 33 22 44 32 16 46 45 29 56 -7 4 -19 -2 -30 -14 -21 -27 -90 -30 -115 -5
-35 34 -36 161 -1 195 23 23 83 21 110 -5 20 -19 26 -20 35 -9 9 11 6 19 -12
36 -30 29 -91 36 -134 16z"/>
<path d="M3923 2980 c-27 -11 -43 -40 -43 -78 0 -38 22 -56 92 -76 48 -14 59
-21 64 -43 5 -20 2 -31 -16 -45 -31 -25 -63 -23 -98 7 -24 20 -32 22 -41 12
-18 -23 30 -59 87 -65 64 -6 106 26 106 81 0 47 -17 64 -80 83 -50 14 -84 36
-84 53 0 40 75 58 110 26 11 -10 26 -15 36 -11 16 6 15 10 -8 32 -27 28 -89
40 -125 24z"/>
<path d="M6670 2977 c-37 -19 -56 -60 -44 -94 8 -22 22 -32 79 -53 65 -24 70
-28 73 -58 3 -27 -1 -34 -24 -42 -35 -14 -80 -4 -97 20 -16 22 -41 11 -31 -14
9 -23 56 -46 94 -46 37 0 85 23 94 45 22 60 -9 105 -88 126 -49 13 -66 26 -66
49 0 42 74 58 111 24 14 -13 23 -14 30 -7 16 16 2 33 -37 49 -41 17 -62 17
-94 1z"/>
<path d="M1750 2840 l0 -140 59 0 c76 0 106 12 126 49 18 36 20 139 3 176 -17
38 -58 55 -128 55 l-60 0 0 -140z m124 98 c40 -18 57 -94 35 -157 -13 -37 -35
-51 -83 -51 l-36 0 0 110 0 110 30 0 c16 0 41 -5 54 -12z"/>
<path d="M2241 2958 c-4 -13 -27 -76 -49 -140 -38 -109 -40 -118 -22 -118 14
0 23 11 31 40 l12 40 54 0 c53 0 53 0 69 -40 11 -26 23 -40 34 -40 16 0 13 16
-30 138 -39 113 -51 138 -69 140 -14 2 -24 -4 -30 -20z m53 -92 c9 -27 16 -51
16 -53 0 -2 -18 -3 -40 -3 -22 0 -40 3 -40 7 0 21 35 112 41 106 3 -5 14 -30
23 -57z"/>
<path d="M2600 2840 c0 -116 2 -140 15 -140 12 0 15 22 17 116 l3 115 63 -115
c47 -85 69 -116 83 -116 18 0 19 9 19 140 0 118 -2 140 -15 140 -12 0 -15 -19
-15 -112 l0 -113 -62 113 c-51 92 -67 112 -85 112 -23 0 -23 -1 -23 -140z"/>
<path d="M3531 2958 c-4 -13 -27 -76 -49 -140 -38 -109 -40 -118 -22 -118 14
0 23 11 31 40 l12 40 54 0 c53 0 53 0 69 -40 11 -26 23 -40 34 -40 16 0 13 16
-30 138 -39 113 -51 138 -69 140 -14 2 -24 -4 -30 -20z m53 -92 c9 -27 16 -51
16 -53 0 -2 -18 -3 -40 -3 -22 0 -40 3 -40 7 0 21 35 112 41 106 3 -5 14 -30
23 -57z"/>
<path d="M4636 2963 c-21 -52 -86 -247 -86 -255 0 -24 34 1 45 32 11 34 14 35
67 38 l55 3 12 -41 c8 -29 17 -40 31 -40 11 0 20 1 20 3 0 1 -22 63 -48 137
-39 110 -52 136 -69 138 -12 2 -23 -4 -27 -15z m63 -140 c1 -9 -13 -13 -39
-13 -22 0 -40 2 -40 4 0 4 27 82 36 106 4 10 13 -3 24 -35 10 -27 19 -56 19
-62z"/>
<path d="M4990 2840 c0 -133 1 -140 20 -140 18 0 20 7 20 56 0 54 0 55 27 52
21 -2 34 -15 58 -55 22 -39 36 -53 52 -53 22 0 21 2 -13 56 l-35 55 25 24 c20
18 26 34 26 64 0 58 -33 81 -116 81 l-64 0 0 -140z m129 96 c7 -8 11 -30 9
-48 -3 -32 -5 -33 -50 -36 l-48 -3 0 50 0 51 39 0 c21 0 44 -6 50 -14z"/>
<path d="M5461 2958 c-4 -13 -27 -76 -49 -140 -38 -109 -40 -118 -22 -118 14
0 23 11 31 40 l12 40 54 0 c53 0 53 0 69 -40 11 -26 23 -40 34 -40 16 0 13 16
-30 138 -39 113 -51 138 -69 140 -14 2 -24 -4 -30 -20z m53 -92 c9 -27 16 -51
16 -53 0 -2 -18 -3 -40 -3 -22 0 -40 3 -40 7 0 21 35 112 41 106 3 -5 14 -30
23 -57z"/>
<path d="M5820 2840 l0 -140 69 0 c88 0 121 22 121 80 0 29 -6 43 -24 57 -20
16 -22 21 -9 29 8 5 15 24 15 43 2 51 -29 71 -108 71 l-64 0 0 -140z m128 98
c32 -32 -6 -78 -65 -78 -32 0 -33 1 -33 45 l0 45 43 0 c24 0 48 -5 55 -12z
m16 -124 c40 -39 4 -84 -66 -84 l-48 0 0 50 0 50 49 0 c32 0 55 -6 65 -16z"/>
<path d="M6240 2840 l0 -140 85 0 c69 0 85 3 85 15 0 12 -14 15 -70 15 l-70 0
0 50 0 50 60 0 c47 0 60 3 60 15 0 12 -13 15 -60 15 l-60 0 0 45 0 45 70 0
c56 0 70 3 70 15 0 12 -16 15 -85 15 l-85 0 0 -140z"/>
</g>
</svg>
